# xmcd
#
# Track frame offsets:
#	150
#	32343
#	53229
#	72451
#	105063
#	120065
#	162999
#	192056
#	214815
#	240060
#	268682
#	288671
#	316798
#
# Disc length: 4573
#
# Revision: 1
# Processed by: cddbd v1.5.1PL0 Copyright (c) Steve Scherf et al.
# Submitted via: CDex 1.51
# Normalized: r0:TDELIM( - )
#
DISCID=a211db0d
DTITLE=Jazz Improv - Vol. 5 Number 3
DYEAR=2005
DGENRE=Jazz
TTITLE0=Mark Sherman - Motive #10
TTITLE1=James Silberstein - Song For Micaela
TTITLE2=Carli Munoz - Three Little Steps To Heaven
TTITLE3=Leslie Pintchik - Mortal
TTITLE4=Chris Cortez - My Way Is Better
TTITLE5=Chick Corea - Tempus Fugit
TTITLE6=Eric Nemeyer - Bye Bye Blackbird
TTITLE7=Roger Kellaway - I Was There
TTITLE8=Marvin Stamm - Waltz For Mia
TTITLE9=Dick Hindman - Solar
TTITLE10=Victor Janusz - Just Another Sunday
TTITLE11=Mike Smith - Bahia
TTITLE12=Don Stiernberg and John Carlini - Angel Eyes
EXTD=YEAR: 2005
EXTT0=
EXTT1=
EXTT2=
EXTT3=
EXTT4=
EXTT5=
EXTT6=
EXTT7=
EXTT8=
EXTT9=
EXTT10=
EXTT11=
EXTT12=
PLAYORDER=
